HIERARCHY
ROOT Hips
{
	OFFSET -13.091600 -28.302996 44.698402
	CHANNELS 6 Xposition Yposition Zposition Zrotation Xrotation Yrotation
	JOINT Chest
	{
		OFFSET -0.673000 0.623899 5.369202
		CHANNELS 6 Xposition Yposition Zposition Zrotation Xrotation Yrotation
		JOINT Chest2
		{
			OFFSET 0.000000 0.000000 4.415001
			CHANNELS 6 Xposition Yposition Zposition Zrotation Xrotation Yrotation
			JOINT Neck
			{
				OFFSET 0.000000 0.000002 10.273300
				CHANNELS 6 Xposition Yposition Zposition Zrotation Xrotation Yrotation
				JOINT Head
				{
					OFFSET 0.000000 0.000000 2.173897
					CHANNELS 6 Xposition Yposition Zposition Zrotation Xrotation Yrotation
					End Site
					{
						OFFSET 0.000000 0.000000 9.961800
					}
				}
			}
			JOINT LeftCollar
			{
				OFFSET 2.359900 -0.565201 5.928101
				CHANNELS 6 Xposition Yposition Zposition Zrotation Xrotation Yrotation
				JOINT LeftShoulder
				{
					OFFSET 5.443700 0.000000 0.000000
					CHANNELS 6 Xposition Yposition Zposition Zrotation Xrotation Yrotation
					JOINT LeftElbow
					{
						OFFSET 0.000000 0.000000 -10.615799
						CHANNELS 6 Xposition Yposition Zposition Zrotation Xrotation Yrotation
						JOINT LeftWrist
						{
							OFFSET 0.000000 -0.000002 -13.110302
							CHANNELS 6 Xposition Yposition Zposition Zrotation Xrotation Yrotation
							End Site
							{
								OFFSET 0.000000 0.000000 -2.173901
							}
						}
					}
				}
			}
			JOINT RightCollar
			{
				OFFSET -2.636600 -1.718800 6.889698
				CHANNELS 6 Xposition Yposition Zposition Zrotation Xrotation Yrotation
				JOINT RightShoulder
				{
					OFFSET -4.139101 0.000000 0.000000
					CHANNELS 6 Xposition Yposition Zposition Zrotation Xrotation Yrotation
					JOINT RightElbow
					{
						OFFSET 0.000000 0.000000 -10.471802
						CHANNELS 6 Xposition Yposition Zposition Zrotation Xrotation Yrotation
						JOINT RightWrist
						{
							OFFSET 0.000000 0.000000 -12.281898
							CHANNELS 6 Xposition Yposition Zposition Zrotation Xrotation Yrotation
							End Site
							{
								OFFSET 0.000000 -0.000002 -2.173901
							}
						}
					}
				}
			}
		}
	}
	JOINT LeftHip
	{
		OFFSET 2.273400 0.176701 -2.518002
		CHANNELS 6 Xposition Yposition Zposition Zrotation Xrotation Yrotation
		JOINT LeftKnee
		{
			OFFSET 0.000000 -0.000002 -20.456402
			CHANNELS 6 Xposition Yposition Zposition Zrotation Xrotation Yrotation
			JOINT LeftAnkle
			{
				OFFSET 0.000000 -0.000002 -16.635300
				CHANNELS 6 Xposition Yposition Zposition Zrotation Xrotation Yrotation
				End Site
				{
					OFFSET 0.000000 -8.812399 0.000001
				}
			}
		}
	}
	JOINT RightHip
	{
		OFFSET -1.914800 0.018101 -2.699299
		CHANNELS 6 Xposition Yposition Zposition Zrotation Xrotation Yrotation
		JOINT RightKnee
		{
			OFFSET 0.000000 -0.000002 -20.148901
			CHANNELS 6 Xposition Yposition Zposition Zrotation Xrotation Yrotation
			JOINT RightAnkle
			{
				OFFSET 0.000000 -0.000002 -16.838301
				CHANNELS 6 Xposition Yposition Zposition Zrotation Xrotation Yrotation
				End Site
				{
					OFFSET 0.000000 -8.328398 0.000001
				}
			}
		}
	}
}
MOTION
Frames: 7
Frame Time: 0.041667
-12.654800 -1.638792 46.449203 3424.018637 -7.503104 2.609890 -0.673005 0.623899 5.369208 -4.338244 -8.518149 -1.641437 0.000001 -0.000000 4.415003 4.498319 0.946256 0.432356 -0.000003 -0.000002 10.273308 -11.082924 -25.715351 -1.080058 -0.000005 0.000000 2.173899 -3.097955 -10.824466 -2.404381 2.359897 -0.565204 5.928098 12.276614 -4.864819 -27.681257 5.443696 -0.000002 0.000000 -86.829395 336.839440 -148.835040 0.000002 -0.000002 -10.615801 550.143652 -171.150839 177.579796 -0.000000 -0.000006 -13.110294 -1996.745370 180.944811 -534.826106 -2.636599 -1.718805 6.889706 183.099436 -191.421912 224.201246 -4.139104 -0.000002 -0.000000 -118.181752 -132.384776 325.671916 -0.000000 -0.000002 -10.471808 21.856423 0.136236 -358.547447 0.000001 -0.000001 -12.281901 23.292070 3.804464 16.198748 2.273396 0.176698 -2.517997 -526.745391 -173.820309 -193.109829 -0.000000 -0.000002 -20.456400 887.484564 155.041237 -180.777745 0.000001 -0.000001 -16.635298 -360.723300 20.673823 3.379406 -1.914803 0.018096 -2.699289 223.569850 150.540183 187.343947 0.000003 -0.000001 -20.148901 -928.144789 -191.588500 169.151055 -0.000002 -0.000004 -16.838303 1060.276165 70.622892 -23.813750
-12.653101 -1.610495 46.456306 3423.890994 -7.465165 2.627931 -0.673001 0.623899 5.369205 -4.223206 -8.578029 -1.643343 0.000001 0.000001 4.415010 4.300447 0.871335 0.400843 -0.000001 -0.000003 10.273300 -11.105704 -26.371087 -1.164090 -0.000002 0.000004 2.173898 -3.245596 -10.817999 -2.362383 2.359896 -0.565206 5.928102 12.336348 -4.987965 -27.821597 5.443699 0.000004 -0.000011 -86.922715 336.893945 -149.063469 0.000000 0.000000 -10.615789 548.007934 -171.741446 177.377103 -0.000002 -0.000004 -13.110307 -1994.832699 180.675688 -534.585246 -2.636593 -1.718804 6.889702 183.177942 -191.746578 224.421588 -4.139085 0.000002 0.000007 -119.819386 -132.990122 324.933491 -0.000002 -0.000007 -10.471803 21.869873 0.515340 -358.583183 0.000001 -0.000002 -12.281904 21.999201 3.889245 15.696101 2.273398 0.176704 -2.518001 -526.960788 -173.993400 -193.185385 -0.000003 -0.000003 -20.456400 888.296919 155.296672 -180.956887 -0.000000 0.000002 -16.635302 -361.070984 20.797209 3.347241 -1.914799 0.018103 -2.699297 223.523295 150.601887 187.376541 -0.000001 -0.000002 -20.148903 -928.167739 -191.579006 169.216721 0.000000 -0.000005 -16.838305 1060.340751 70.648390 -23.653852
-12.651301 -1.580194 46.461605 3423.737561 -7.224289 2.642385 -0.673000 0.623901 5.369198 -4.097453 -8.951068 -1.668919 0.000003 -0.000001 4.414995 4.105120 0.877187 0.380134 -0.000001 -0.000002 10.273312 -10.995139 -26.986166 -1.254307 0.000000 -0.000008 2.173901 -3.435368 -10.870747 -2.387433 2.359899 -0.565204 5.928106 12.312974 -5.086443 -28.062303 5.443696 -0.000001 0.000006 -86.819115 336.809824 -149.267678 0.000000 -0.000005 -10.615788 545.889592 -172.130630 177.290182 -0.000003 -0.000004 -13.110296 -1992.901449 180.376622 -534.515523 -2.636596 -1.718805 6.889698 183.577808 -193.018796 224.851617 -4.139099 0.000001 -0.000001 -122.150202 -133.132381 324.429642 -0.000001 -0.000000 -10.471800 21.547382 0.847097 -358.619028 0.000002 -0.000000 -12.281906 21.002401 4.259875 15.445850 2.273399 0.176703 -2.517997 -527.231099 -174.014396 -193.220943 0.000001 -0.000002 -20.456398 889.209924 155.596272 -181.152886 -0.000003 0.000001 -16.635300 -361.437191 20.930946 3.321094 -1.914798 0.018101 -2.699302 223.308609 150.829961 187.621526 -0.000003 -0.000003 -20.148897 -928.209485 -191.591082 169.301934 -0.000003 -0.000002 -16.838305 1060.458886 70.694309 -23.407176
-12.649302 -1.549097 46.469505 3423.604891 -7.181602 2.606790 -0.672999 0.623902 5.369210 -3.972967 -9.066619 -1.596251 0.000002 -0.000002 4.415009 3.941693 0.832175 0.350386 -0.000001 -0.000001 10.273314 -11.801731 -27.741846 -1.418382 0.000000 0.000002 2.173911 -3.657346 -12.711560 -1.767927 2.359900 -0.565206 5.928107 12.346648 -5.305356 -28.307284 5.443696 -0.000001 -0.000002 -86.280493 337.262228 -148.912017 0.000001 -0.000003 -10.615795 544.729115 -172.725102 176.946801 -0.000004 -0.000005 -13.110298 -1991.256521 180.246015 -534.259801 -2.636596 -1.718808 6.889705 183.175292 -191.906159 224.585485 -4.139100 0.000004 0.000009 -122.524031 -134.578154 323.293590 0.000002 -0.000001 -10.471791 21.474687 1.301330 -358.594330 0.000002 -0.000003 -12.281894 19.699729 4.440586 15.130211 2.273399 0.176704 -2.517997 -527.519770 -174.251718 -193.246570 -0.000001 -0.000002 -20.456398 889.932996 155.881733 -181.283097 0.000003 0.000000 -16.635300 -361.629748 21.025320 3.308842 -1.914798 0.018100 -2.699297 223.191895 150.861011 187.731547 0.000000 -0.000002 -20.148893 -928.338767 -191.586069 169.376165 -0.000001 -0.000002 -16.838301 1060.575710 70.757577 -23.134389
-12.646601 -1.520496 46.478405 3423.475063 -7.198165 2.603088 -0.673001 0.623900 5.369204 -3.851458 -9.108522 -1.564721 0.000002 0.000000 4.415009 3.819307 0.904550 0.342663 -0.000000 -0.000000 10.273302 -12.768393 -28.576014 -1.649502 -0.000001 -0.000001 2.173905 -3.129875 -12.841076 -1.856323 2.359900 -0.565204 5.928094 12.348198 -5.528691 -28.456759 5.443701 0.000001 0.000006 -85.973872 337.790639 -148.632607 -0.000003 -0.000000 -10.615794 544.052107 -173.431590 176.603871 -0.000002 -0.000002 -13.110293 -1990.132654 180.084139 -534.079593 -2.636600 -1.718804 6.889704 183.074601 -191.658537 224.459974 -4.139096 0.000001 -0.000002 -123.253318 -135.392463 322.793128 0.000002 -0.000002 -10.471796 21.461686 1.651389 -358.582828 0.000005 -0.000003 -12.281897 18.348289 4.698254 14.799490 2.273401 0.176701 -2.518002 -527.718338 -174.497017 -193.305651 0.000001 0.000003 -20.456408 890.556565 156.138357 -181.407202 -0.000001 0.000001 -16.635298 -361.831621 21.117613 3.294414 -1.914796 0.018100 -2.699298 223.275906 150.831026 187.688599 -0.000000 0.000001 -20.148901 -928.483020 -191.532233 169.409619 -0.000001 -0.000004 -16.838301 1060.584125 70.810265 -22.938147
-12.644103 -1.496193 46.489304 3423.386981 -7.086670 2.583768 -0.673002 0.623896 5.369208 -3.776271 -9.340057 -1.533829 0.000002 -0.000004 4.415010 3.748737 0.896036 0.331883 -0.000000 0.000001 10.273304 -13.747398 -29.160748 -1.840323 -0.000000 -0.000006 2.173905 -2.657783 -13.133351 -1.968189 2.359904 -0.565203 5.928092 12.281458 -5.423333 -28.466565 5.443699 -0.000000 0.000000 -85.842740 338.292248 -148.582692 0.000000 -0.000003 -10.615795 543.011186 -174.057016 176.310064 -0.000001 -0.000004 -13.110301 -1988.972943 179.927714 -533.942990 -2.636599 -1.718807 6.889704 183.050176 -191.814224 224.346019 -4.139091 0.000001 0.000001 -124.315959 -136.153920 322.266056 -0.000001 -0.000005 -10.471807 21.187240 1.968840 -358.539442 -0.000001 -0.000001 -12.281889 17.186240 5.028536 14.468014 2.273397 0.176701 -2.517997 -527.738500 -174.519202 -193.288684 0.000001 -0.000004 -20.456408 891.073965 156.335735 -181.569009 -0.000002 0.000000 -16.635302 -362.155508 21.214221 3.270268 -1.914800 0.018096 -2.699294 222.955652 150.961702 187.910389 0.000002 -0.000002 -20.148897 -928.480944 -191.561780 169.495242 -0.000001 -0.000004 -16.838303 1060.483693 70.882050 -22.506322
-12.642501 -1.476694 46.498703 3423.413209 -6.976001 2.609357 -0.672998 0.623902 5.369206 -3.823109 -9.549461 -1.485295 0.000002 0.000001 4.415005 3.665832 0.915225 0.324302 -0.000002 -0.000001 10.273298 -14.422986 -29.752587 -2.094913 -0.000001 -0.000002 2.173911 -2.344268 -13.394780 -2.013332 2.359900 -0.565203 5.928097 12.210592 -5.400353 -28.692884 5.443704 0.000003 -0.000003 -85.836715 338.554391 -148.529485 0.000000 -0.000003 -10.615797 542.326309 -174.624154 176.140907 -0.000000 -0.000004 -13.110291 -1988.408168 179.824374 -533.899276 -2.636596 -1.718803 6.889702 183.013471 -191.836422 224.203336 -4.139093 0.000004 -0.000004 -125.239428 -136.864956 321.754939 -0.000002 0.000001 -10.471803 20.969364 2.253921 -358.499035 -0.000002 -0.000006 -12.281898 16.006214 5.349679 14.102283 2.273401 0.176702 -2.517999 -527.824998 -174.502099 -193.287209 0.000004 -0.000002 -20.456394 890.994024 156.414064 -181.568558 0.000001 -0.000001 -16.635302 -362.004069 21.197174 3.293905 -1.914798 0.018100 -2.699301 222.582546 151.102349 188.090596 0.000002 -0.000002 -20.148897 -928.464114 -191.582189 169.558982 -0.000001 -0.000004 -16.838305 1060.559645 70.945516 -22.275596
